<svg width="196" height="195" viewBox="0 0 196 195" fill="none" xmlns="http://www.w3.org/2000/svg">
<ellipse cx="103.671" cy="60.4018" rx="9" ry="34.5" transform="rotate(10.5 103.671 60.4018)" fill="#FF86FD"/>
<ellipse cx="88.6237" cy="58.3107" rx="9" ry="34.5" transform="rotate(-12 88.6237 58.3107)" fill="#FF9AFD"/>
<ellipse cx="75.7267" cy="64.8373" rx="9" ry="34.5" transform="rotate(-37 75.7267 64.8373)" fill="#FFA4FD"/>
<ellipse cx="67.6992" cy="77.2029" rx="9" ry="34.5" transform="rotate(-57 67.6992 77.2029)" fill="#FFB1FE"/>
<ellipse cx="60.0128" cy="88.6242" rx="9" ry="34.5" transform="rotate(-80 60.0128 88.6242)" fill="#FFB8FE"/>
<ellipse cx="59.2133" cy="103.599" rx="9" ry="34.5" transform="rotate(-102 59.2133 103.599)" fill="#FFAFFE"/>
<ellipse cx="66.6353" cy="117.432" rx="9" ry="34.5" transform="rotate(55.5 66.6353 117.432)" fill="#FEA5FC"/>
<ellipse cx="77.8433" cy="124.927" rx="9" ry="34.5" transform="rotate(-147 77.8433 124.927)" fill="#FF9AFD"/>
<ellipse cx="89.8239" cy="131.298" rx="9" ry="34.5" transform="rotate(10.5 89.8239 131.298)" fill="#FF87FD"/>
<ellipse cx="104.501" cy="133.009" rx="9" ry="34.5" transform="rotate(-12 104.501 133.009)" fill="#FF74FD"/>
<ellipse cx="119.227" cy="130.05" rx="9" ry="34.5" transform="rotate(-37 119.227 130.05)" fill="#FF5BFC"/>
<ellipse cx="125.568" cy="114.783" rx="9" ry="34.5" transform="rotate(-57 125.568 114.783)" fill="#FE68FB"/>
<ellipse cx="136.192" cy="103.517" rx="9" ry="34.5" transform="rotate(-80 136.192 103.517)" fill="#FF79FD"/>
<ellipse cx="133.912" cy="87.7212" rx="9" ry="34.5" transform="rotate(-102 133.912 87.7212)" fill="#FE95FC"/>
<ellipse cx="125.77" cy="75.9459" rx="9" ry="34.5" transform="rotate(55.5 125.77 75.9459)" fill="#FFA3FD"/>
<ellipse cx="115.424" cy="67.059" rx="9" ry="34.5" transform="rotate(33 115.424 67.059)" fill="#FFB3FE"/>
<ellipse cx="82.736" cy="63.0754" rx="9" ry="34.5" transform="rotate(-22.5 82.736 63.0754)" fill="#FF86FD"/>
<ellipse cx="68.9776" cy="69.5168" rx="9" ry="34.5" transform="rotate(-45 68.9776 69.5168)" fill="#FF9AFD"/>
<ellipse cx="61.7161" cy="82.0146" rx="9" ry="34.5" transform="rotate(-70 61.7161 82.0146)" fill="#FFA4FD"/>
<ellipse cx="61.7185" cy="96.7576" rx="9" ry="34.5" transform="rotate(-90 61.7185 96.7576)" fill="#FFB1FE"/>
<ellipse cx="61.4925" cy="110.522" rx="9" ry="34.5" transform="rotate(-113 61.4925 110.522)" fill="#FFB8FE"/>
<ellipse cx="68.9778" cy="123.517" rx="9" ry="34.5" transform="rotate(-135 68.9778 123.517)" fill="#FFAFFE"/>
<ellipse cx="82.7361" cy="131.076" rx="9" ry="34.5" transform="rotate(22.5 82.7361 131.076)" fill="#FEA5FC"/>
<ellipse cx="96.2185" cy="131.258" rx="9" ry="34.5" transform="rotate(180 96.2185 131.258)" fill="#FF9AFD"/>
<ellipse cx="109.736" cy="130.075" rx="9" ry="34.5" transform="rotate(-22.5 109.736 130.075)" fill="#FF87FD"/>
<ellipse cx="122.978" cy="123.517" rx="9" ry="34.5" transform="rotate(-45 122.978 123.517)" fill="#FF74FD"/>
<ellipse cx="133.716" cy="113.015" rx="9" ry="34.5" transform="rotate(-70 133.716 113.015)" fill="#FF5BFC"/>
<ellipse cx="130.719" cy="96.7576" rx="9" ry="34.5" transform="rotate(-90 130.719 96.7576)" fill="#FE68FB"/>
<ellipse cx="133.493" cy="81.5223" rx="9" ry="34.5" transform="rotate(-113 133.493 81.5223)" fill="#FF79FD"/>
<ellipse cx="122.978" cy="69.5167" rx="9" ry="34.5" transform="rotate(-135 122.978 69.5167)" fill="#FE95FC"/>
<ellipse cx="109.736" cy="64.0756" rx="9" ry="34.5" transform="rotate(22.5 109.736 64.0756)" fill="#FFA3FD"/>
<ellipse cx="96.2185" cy="62.2576" rx="9" ry="34.5" fill="#FF8EFD"/>
<circle cx="96.2185" cy="97.7576" r="12" fill="#B700AA"/>
</svg>
