<svg width="86" height="88" viewBox="0 0 86 88" fill="none" xmlns="http://www.w3.org/2000/svg">
<path d="M14 0C22.5982 23.0288 34.096 34.4223 32.916 88H14C22.6213 48.7691 15.0509 39.3576 14 0Z" fill="#B1FF81"/>
<path d="M86 1C77.8543 23.7671 66.9616 35.0312 68.0796 88H86C77.8324 49.2149 85.0044 39.9103 86 1Z" fill="#9AFF6B"/>
<path d="M52 0C50.954 34.3561 53.142 53.6234 63 88H41C41.3231 52.4448 43.8142 33.2223 52 0Z" fill="#90FF8B"/>
<path d="M11 0C9.95403 34.3561 12.142 53.6234 22 88H0C0.323127 52.4448 2.81416 33.2223 11 0Z" fill="#C6FFB4"/>
<path d="M41.5 0C40.5016 34.3561 42.59 53.6234 52 88H31C31.3084 52.4448 33.6862 33.2223 41.5 0Z" fill="#9AFF6B"/>
<path d="M62 0C63.046 34.3561 60.858 53.6234 51 88H73C72.6769 52.4448 70.1858 33.2223 62 0Z" fill="#B9FFB5"/>
</svg>
