<svg width="101" height="96" viewBox="0 0 101 96" fill="none" xmlns="http://www.w3.org/2000/svg">
<path d="M32.7876 16.2522C32.2869 14.7396 32.5511 13.0628 33.5184 11.7967C45.4916 -3.87339 53.3693 -3.76155 66.6474 11.1166C68.1178 12.7642 68.4901 15.1183 67.6698 17.1686C63.3395 27.9915 60.3154 35.6338 60.5421 44.2453C60.7081 50.5534 56.432 56.8374 50.1217 56.8374C44.0338 56.8374 39.755 50.971 39.793 44.8832C39.8517 35.4891 36.5266 27.5483 32.7876 16.2522Z" fill="#FF72F1"/>
<path d="M15.7001 54.2995C14.1068 54.3083 12.5937 53.5389 11.6886 52.2277C0.485312 35.9982 3.02604 28.5405 21.2791 20.51C23.3005 19.6207 25.6544 19.994 27.3509 21.4078C36.306 28.8706 42.6397 34.1083 50.8998 36.5538C56.9505 38.3452 61.6055 44.3539 59.6555 50.3554C57.7743 56.1453 50.8727 58.4018 45.0947 56.4844C36.1785 53.5257 27.5988 54.2342 15.7001 54.2995Z" fill="#FF89F3"/>
<path d="M46.6051 82.308C46.1211 83.826 44.9218 85.0273 43.395 85.4829C24.4978 91.1227 18.1903 86.4018 16.1933 66.5604C15.9722 64.3632 17.0547 62.2399 18.9234 61.0634C28.7882 54.8526 35.7268 50.4475 40.6052 43.3474C44.1787 38.1464 51.3318 35.576 56.4369 39.2851C61.3621 42.8634 61.3755 50.1245 57.7665 55.0273C52.1973 62.5927 50.2199 70.9714 46.6051 82.308Z" fill="#FE9AF4"/>
<path d="M82.7927 61.5707C84.0869 62.5002 84.8587 64.012 84.8203 65.6049C84.3445 85.3199 77.9055 89.8598 58.4182 85.6278C56.2602 85.1592 54.5753 83.4735 54.0338 81.3326C51.1754 70.0314 49.13 62.0711 43.8849 55.2375C40.0427 50.2317 39.8086 42.6344 44.9137 38.9253C49.8389 35.347 56.7488 37.578 60.2963 42.5254C65.7705 50.1599 73.1281 54.6297 82.7927 61.5707Z" fill="#F9ABF1"/>
<path d="M74.2529 20.7461C75.5368 19.8025 77.2131 19.5356 78.7162 20.0643C97.3192 26.6092 99.6472 34.1359 89.6004 51.3617C88.4879 53.2693 86.364 54.3508 84.1606 54.2042C72.5292 53.4304 64.3265 52.9158 56.2065 55.7925C50.2584 57.8998 42.9606 55.7748 41.0106 49.7733C39.1294 43.9834 43.3865 38.1012 49.188 36.2562C58.1404 33.4091 64.6651 27.7928 74.2529 20.7461Z" fill="#FFB8F8"/>
<circle cx="51" cy="47.8374" r="12" fill="#FFE3A6"/>
</svg>
