<svg width="162" height="141" viewBox="0 0 162 141" fill="none" xmlns="http://www.w3.org/2000/svg">
<ellipse cx="83" cy="113" rx="36" ry="28" fill="#7EFF92" fill-opacity="0.8"/>
<path d="M66.0051 48.3C66.0051 61.6874 57.0802 120 80 120C102.92 120 132.005 61.6874 132.005 48.3C132.005 34.9126 122.92 7.5 100 7.5C77.0802 7.5 66.0051 34.9126 66.0051 48.3Z" fill="#FFB5F5" fill-opacity="0.85"/>
<path d="M111.5 38.8991C111.5 52.4707 102.92 120 80 120C57.0802 120 36 61.8987 36 48.3271C36 22 43.0802 0 66 0C88.9198 0 111.5 25.3275 111.5 38.8991Z" fill="#FFB3F5" fill-opacity="0.93"/>
<path d="M159.894 61.6868C160.721 59.6385 159.732 57.3072 157.684 56.4796L143.341 50.6848C124.874 43.2235 103.911 52.6558 97.247 71.4253L80 120L104.611 123.927C121.179 126.57 137.377 117.418 143.662 101.862L159.894 61.6868Z" fill="#FFB2E8" fill-opacity="0.8"/>
<path d="M1.72488 62.3336C0.786431 60.2479 1.78478 57.8013 3.91455 56.9676L19.6236 50.8181C38.6465 43.3714 59.9775 53.7315 65.8861 73.2869L80 120L59.004 123.653C42.8026 126.472 26.7504 117.954 20.0028 102.957L1.72488 62.3336Z" fill="#FFB2E8" fill-opacity="0.8"/>
<path d="M136 48C136 45.7909 134.209 44 132 44H113.56C94.8014 44 79.3783 58.7883 78.5905 77.53L76.8051 120H100C119.882 120 136 103.882 136 84V48Z" fill="#FF9DE2" fill-opacity="0.91"/>
<path d="M14.3134 37.4103C13.6911 34.61 16.1318 32.0843 18.9518 32.6104L52.3624 38.8437C68.5058 41.8556 80.3844 55.6862 80.9243 72.0993L82.5 120L59.1154 118.611C43.0664 117.657 29.5951 106.178 26.1075 90.4837L14.3134 37.4103Z" fill="#FFB4E9" fill-opacity="0.98"/>
</svg>
