<svg width="193" height="65" viewBox="0 0 193 65" fill="none" xmlns="http://www.w3.org/2000/svg">
<path d="M14.848 2.07045C6.88759 11.6257 10.205 22.9407 21.9389 26.5005C52.7444 35.846 54.8384 36.5392 62.5832 33.6362C63.029 22.7335 55.5328 13.6878 43.113 10.1414L14.848 2.07045Z" fill="#F9ABF1"/>
<path d="M14.848 62.9396C6.88759 53.3843 10.205 42.0693 21.9389 38.5095C52.7444 29.164 54.8384 28.4708 62.5832 31.3738C63.029 42.2765 55.5328 51.3222 43.113 54.8686L14.848 62.9396Z" fill="#FF94F4"/>
<path d="M74.7591 2.06557C66.7987 11.6209 70.1161 22.9359 81.85 26.4956C112.655 35.8411 114.75 36.5343 122.494 33.6313C122.94 22.7286 115.444 13.6829 103.024 10.1365L74.7591 2.06557Z" fill="#F9ABF1"/>
<path d="M74.7591 62.9347C66.7987 53.3794 70.1161 42.0644 81.85 38.5047C112.655 29.1591 114.75 28.4659 122.494 31.3689C122.94 42.2716 115.444 51.3174 103.024 54.8638L74.7591 62.9347Z" fill="#FF94F4"/>
<path d="M134.67 2.06093C126.71 11.6162 130.027 22.9312 141.761 26.491C172.566 35.8365 174.66 36.5297 182.405 33.6267C182.851 22.724 175.355 13.6782 162.935 10.1318L134.67 2.06093Z" fill="#F9ABF1"/>
<path d="M134.67 62.93C126.71 53.3747 130.027 42.0597 141.761 38.5C172.566 29.1545 174.66 28.4613 182.405 31.3643C182.851 42.267 175.355 51.3127 162.935 54.8591L134.67 62.93Z" fill="#FF94F4"/>
</svg>
