<svg width="50" height="61" viewBox="0 0 50 61" fill="none" xmlns="http://www.w3.org/2000/svg">
<path d="M14.5001 6.17907C17.5001 1.40356 26.0001 1.40349 29.5001 6.17906C31.463 8.85733 35.4704 23.7605 38.6116 36.334C40.9422 45.6629 33.8312 54.5974 24.2156 54.5974C15.4777 54.5974 8.60193 47.1444 9.4719 38.4499C10.7685 25.4917 12.7221 9.00934 14.5001 6.17907Z" fill="#FF83F3"/>
<path d="M10.4993 8.80544C12.5854 3.36046 20.4639 1.97122 24.779 6.28755C27.3044 8.81366 33.7862 24.9018 38.7285 37.8125C42.0576 46.509 36.5678 55.9956 27.3974 57.6126L26.6973 57.736C17.6535 59.3307 9.31967 52.5003 9.24984 43.3172C9.14481 29.5038 9.26925 12.0158 10.4993 8.80544Z" fill="#FFCFFA"/>
<path d="M23.8832 5.29961C27.619 0.773059 35.4725 2.01687 38.1176 7.55412C39.6744 10.8131 40.5151 28.4972 40.9434 42.4973C41.2277 51.7875 32.9575 58.943 23.7775 57.489L23.1965 57.397C14.1413 55.9628 8.48616 46.8151 11.3792 38.1153C15.7952 24.8356 21.6685 7.98296 23.8832 5.29961Z" fill="#FF9FF5"/>
<path d="M17 7.59743C20 2.59743 28 2.59738 31.5 7.59743C33.5484 10.5237 37.138 27.493 39.7633 41.0658C41.5317 50.2082 34.478 58.5974 25.1661 58.5974H24.4553C15.2719 58.5974 8.25079 50.4237 9.77666 41.3679C12.0719 27.7461 15.2312 10.5454 17 7.59743Z" fill="#FFB8F8"/>
</svg>
